<?xml version="1.0" standalone="no"?>
<!DOCTYPE svg PUBLIC "-//W3C//DTD SVG 20010904//EN"
 "http://www.w3.org/TR/2001/REC-SVG-20010904/DTD/svg10.dtd">
<svg version="1.0" xmlns="http://www.w3.org/2000/svg"
 width="500.000000pt" height="500.000000pt" viewBox="0 0 500.000000 500.000000"
 preserveAspectRatio="xMidYMid meet">
<metadata>
Created by potrace 1.11, written by Peter Selinger 2001-2013
</metadata>
<g transform="translate(0.000000,500.000000) scale(0.100000,-0.100000)"
fill="#000000" stroke="none">
<path d="M0 4628 l0 -373 455 3 455 2 -2 -572 -3 -573 -453 0 -452 0 0 -1557
0 -1558 2500 0 2500 0 0 2500 0 2500 -2500 0 -2500 0 0 -372z m3032 -648 c110
-8 274 -47 304 -71 6 -5 14 -6 17 -2 4 3 7 1 7 -5 0 -7 5 -12 12 -12 22 0 137
-82 182 -130 25 -26 47 -46 50 -44 3 2 4 1 2 -2 -3 -3 11 -30 29 -59 95 -147
138 -369 116 -585 -15 -139 -35 -217 -82 -319 -21 -46 -39 -88 -39 -93 0 -6
-18 -32 -40 -58 -22 -27 -39 -54 -38 -60 2 -7 -5 -14 -16 -15 -10 -2 -30 -14
-45 -27 -14 -13 -61 -41 -103 -62 -43 -22 -78 -43 -78 -48 0 -4 -7 -8 -15 -8
-18 0 -19 -5 -2 -38 85 -173 162 -319 171 -327 6 -6 12 -15 13 -20 1 -6 89
-179 196 -385 107 -206 192 -378 190 -382 -2 -5 -120 -8 -262 -8 l-257 0 -81
163 c-44 89 -81 165 -82 169 -1 4 -31 65 -65 135 -35 70 -69 144 -75 164 -6
19 -27 59 -46 89 -19 30 -35 61 -35 69 0 7 -28 67 -62 132 -43 83 -67 119 -82
122 -36 8 -505 2 -513 -7 -4 -4 -6 -239 -5 -522 l4 -514 -234 0 -233 0 -1
1385 -1 1385 541 0 c298 0 594 -5 658 -10z"/>
<path d="M2298 3151 c-3 -203 -3 -383 0 -400 4 -27 7 -30 28 -25 16 4 24 2 24
-6 0 -10 21 -11 88 -6 48 4 120 9 160 12 53 4 72 3 72 -6 0 -9 22 -11 88 -6
48 4 129 9 180 11 113 5 179 31 245 98 103 102 135 348 66 507 -39 90 -134
157 -256 180 -32 5 -196 10 -373 10 l-317 0 -5 -369z"/>
</g>
</svg>
